<svg xmlns="http://www.w3.org/2000/svg" viewBox="0 0 2644 690.5">
<style>.cls-1{fill:none; stroke: black}</style>
<defs>
</defs>
<g>
<path class="cls-1" d="M279.62,190.76l-2.92,331C272,449.71,211.78,392.5,138.5,392.5c-.89,0-1.77,0-2.66,0l1.78-201.77Z"/>
<path class="cls-1" d="M276.7,521.81q.3,4.56.3,9.19c0,76.37-62.13,138.5-138.5,138.5S0,607.37,0,531c0-75.48,60.69-137,135.84-138.47.89,0,1.77,0,2.66,0C211.78,392.5,272,449.71,276.7,521.81Z"/>
<circle class="cls-1" cx="2503" cy="340" r="141"/>
<path class="cls-1" d="M2308.62,345.12a138.58,138.58,0,1,1,.45-11.24Q2309.07,339.57,2308.62,345.12Z"/>
<path class="cls-1" d="M2308.62,345.12V472.76h-138v-.38A138.51,138.51,0,0,0,2308.62,345.12Z"/>
<path class="cls-1" d="M2170.57,472.38v.38h-138l-1-138.88h.45A138.5,138.5,0,0,0,2170.57,472.38Z"/>
<rect class="cls-1" x="1808.5" y="198.5" width="145" height="272"/>
<circle class="cls-1" cx="1881" cy="80" r="72.5"/>
<path class="cls-1" d="M1755.7,349.59l1.92,200.15h-.12A140.89,140.89,0,0,0,1716,450.07c-2-2-4-3.87-6-5.69A140.12,140.12,0,0,0,1755.7,349.59Z"/>
<path class="cls-1" d="M1757.5,549.74A140.46,140.46,0,0,1,1617,690.5c-77.47,0-140.5-63.14-140.5-140.75a139.66,139.66,0,0,1,41.15-99.41c1.59-1.59,3.2-3.13,4.85-4.62a140.23,140.23,0,0,0,187.5-1.34c2,1.82,4.07,3.72,6,5.69A140.89,140.89,0,0,1,1757.5,549.74Z"/>
<path class="cls-1" d="M1755.7,349.59a140.12,140.12,0,0,1-45.7,94.79A138.1,138.1,0,0,0,1617.53,409H1617a140.28,140.28,0,0,0-94.49,36.72A140.16,140.16,0,0,1,1475,340.5C1475,263,1538,200,1615.5,200S1756,263,1756,340.5Q1756,345.08,1755.7,349.59Z"/>
<circle class="cls-1" cx="1287" cy="334" r="140"/>
<path class="cls-1" d="M976.62,329V467.76h-139v-.29A138.5,138.5,0,0,0,976.13,329Z"/>
<path class="cls-1" d="M699.62,340.68q-.5-5.79-.49-11.71a138.43,138.43,0,1,1,.49,11.71Z"/>
<path class="cls-1" d="M837.63,467.47v.29h-138V340.68A138.51,138.51,0,0,0,837.63,467.47Z"/>
<path class="cls-1" d="M625.62,190.76l1,139h-.5a138.5,138.5,0,0,0-138.5-138.5v-.5Z"/>
<path class="cls-1" d="M349.54,318.86a138.62,138.62,0,1,1-.42,10.9C349.12,326.09,349.26,322.45,349.54,318.86Z"/>
<path class="cls-1" d="M487.62,190.76v.5a138.51,138.51,0,0,0-138.08,127.6l-.92-128.1Z"/>
</g></svg>